<?xml version="1.0" encoding="utf-8"?>
<!-- Generator: Adobe Illustrator 16.0.0, SVG Export Plug-In . SVG Version: 6.00 Build 0)  -->
<!DOCTYPE svg PUBLIC "-//W3C//DTD SVG 1.1//EN" "http://www.w3.org/Graphics/SVG/1.1/DTD/svg11.dtd">
<svg version="1.1" xmlns="http://www.w3.org/2000/svg" xmlns:xlink="http://www.w3.org/1999/xlink" x="0px" y="0px"
	 width="283.571px" height="337.741px" viewBox="0 0 283.571 337.741" enable-background="new 0 0 283.571 337.741"
	 xml:space="preserve">
<g>
	<rect fill="#FFFFFF" width="283.571" height="337.741"/>
	<rect x="12.817" y="12.817" fill="#000B40" width="257.938" height="293.263"/>
</g>
<g>
	<g>
		<path fill="#FFFFFF" d="M242.282,136.093c-0.54-2.411-6.727-21.167-5.626-33.63c0.55-6.214,3.09-19.701,3.267-30.577
			c0.24-14.656-1.993-26.392-1.993-26.392s-2.828,1.869-10.154,1.187c-3.519-0.328-5.167,2.638-11.21,2.638
			c-6.809,0-7.368-4.484-14.439-4.484c-7.27,0-12.76,5.935-21.959,5.935c-14.836,0-9.147-6.725-20.176-6.725
			c-8.572,0-13.584,6.659-25.058,7.187c-6.064,0.278-9.66-0.641-12.657-1.57c-1.318,0.901-3.192,1.872-5.606,2.36
			c-3.932,0.796-3.363-0.264-7.253,2.374c-1.93,1.309-3.686,4.294-7.583,7.122c-3.898,2.829-8.375,3.891-8.375,3.891
			c-0.738-5.384-2.745-12.709-3.516-15.419c-0.372,0.191-1.616,1.177-7.363,1.177c-4.451,0-6.396-0.649-7.714-1.329v0.001
			c0,0.001,0.001,0.001,0.001,0.001c1.82,4.962,3.502,14.635,3.502,14.635c-3.475-0.672-7.101-0.958-11.058-5.727
			c-1.54-1.856-2.646-4.028-11.255-5.766c-5.472-1.104-9.328-3.073-11.279-4.281c-0.709-0.013-1.437-0.043-2.157-0.101
			c-3.668-0.298-7.153-1.225-7.153-1.225s0.851,3.062,2.084,6.859c1.789,1.331,4.519,2.913,8.334,3.856
			c6.081,1.503,10.253,0.129,16.478,8.252c-4.151-0.078-4.03-1.483-7.489-1.798c-3.557-0.323-2.911,1.524-7.992,1.524
			c-4.415,0-5.831-1.917-6.49-2.784c0-0.001-0.001-0.003-0.001-0.004c1.328,4.972,2.36,10.315,3.161,15.639
			c1.234,0.693,2.804,1.239,4.697,1.248c4.676,0.022,6.247-0.709,8.819-0.709c2.752,0,4.8,2.294,9.799,1.338
			c-2.705,2.704-7.107,3.07-9.011,3.457c-1.486,0.303-4.994,3.104-4.994,3.104c-3.107,2.458-5.882,3.235-7.864,3.404
			c1.034,10.707,1.25,19.978,1.25,24.069c0,19.022-4.55,41.244-4.55,41.244s6.493,2.432,17.21-2.374
			c13.806-6.191,6.371,4.843,17.705,3.165c11.334-1.677,31.46-13.355,33.332-3.825c1.093,5.565,22.221,5.539,33.826,1.055
			c11.605-4.484,20.024-12.982,26.243-11.21c2.393,0.683,1.75,2.392,1.026,4.778c-0.603,1.989-3.268,15.532,30.822,5.245
			c13.471-4.064,19.243-8.704,19.243-0.923c0,7.78,9.589,4.37,11.484,3.626c9.759-3.824,12-0.791,12-0.791
			S245.057,148.483,242.282,136.093z M79.48,96.53c-2.67,0-5.242,2.077-8.308,2.077s-2.374-1.879-7.22-1.879
			c-4.847,0-4.352,1.483-9.89,1.483c-0.228,0-0.448-0.006-0.666-0.014c3.814-1.508,6.67-4.877,8.896-5.619
			c2.042-0.68,3.995-0.481,6.208-1.54c2.215-1.059,2.984-2.865,5.802-4.773c2.817-1.908,7.05-3.265,7.05-3.265
			s1.118,6.967,1.24,14.235C81.473,96.837,80.421,96.53,79.48,96.53z M113.408,62.903c1.281-1.238,2.458-2.271,3.696-2.771
			c3.184-1.29,5.138-0.829,8.303-1.894c1.058-0.356,2.18-0.93,3.255-1.579c0.641-0.387,1.264-0.8,1.849-1.209
			c0.738,2.788,1.652,6.59,2.553,11.252c-0.903,0.414-2.09,0.81-3.635,0.81c-4.848,0-6.41-4.162-17.538-3.124
			C112.417,63.875,112.92,63.375,113.408,62.903z M118.845,96.431c-4.549,0-9.693,2.572-14.638,2.572
			c-2.766,0-5.101-0.859-7.328-0.976c-0.053-1.844-0.368-12.189-0.849-14.29c0,0,5.474,0.475,7.847,1.793
			c2.374,1.319,3.626,2.387,5.538,3.046c1.913,0.659,5.959,1.587,8.441,2.612c2.932,1.211,7.19,6.091,10.42,6.918
			C125.054,98.055,121.471,96.431,118.845,96.431z M126.823,87.496c-3.198-3.198-5.011-3.692-8.242-4.615
			c-2.614-0.747-6.09-2.486-7.323-3.123c16.571-3.279,13.931,3.512,24.089,1.662c0.41,3.452,0.762,7.132,1.02,11.018
			C134.087,92.182,130.469,91.141,126.823,87.496z"/>
		<polygon fill="#00365D" points="74.866,49.837 74.866,49.836 74.866,49.836 		"/>
		<path fill="#00365D" d="M89.942,49.988L89.942,49.988c0.007-0.004,0.016-0.008,0.022-0.011
			C89.958,49.98,89.949,49.984,89.942,49.988z"/>
		<polygon fill="#00365D" points="37.55,54.232 37.552,54.24 37.55,54.232 		"/>
	</g>
	<g>
		<path fill="#FFFFFF" d="M146.203,217.046v-15.645l-16.235-29.048h11.878l9.677,19.038l9.677-19.038h11.883l-16.24,29.048v15.645
			H146.203z"/>
		<path fill="#FFFFFF" d="M239.353,217.046h-24.706v-44.692h10.637v35.696h14.069V217.046z"/>
		<path fill="#FFFFFF" d="M106.977,171.164c-12.969,0-23.519,10.55-23.519,23.515c0,12.966,10.55,23.514,23.519,23.514
			c12.965,0,23.512-10.548,23.512-23.514C130.489,181.713,119.942,171.164,106.977,171.164z M106.971,207.837
			c-6.915,0-12.54-5.903-12.54-13.158c0-7.25,5.625-13.149,12.54-13.149c6.913,0,12.538,5.899,12.538,13.149
			C119.509,201.934,113.884,207.837,106.971,207.837z"/>
		<path fill="#FFFFFF" d="M82.643,217.046l-12.233-18.33c5.2-2.153,8.276-7.279,8.276-12.581c0-7.985-5.741-13.781-13.652-13.781
			H43.957v44.692h10.639v-17.129h4.834l10.596,17.129H82.643z M61.942,179.976c2.715,0,5.949,1.088,5.949,6.281
			c0,3.455-2.664,6.268-5.939,6.268h-7.357v-12.548H61.942z"/>
		<path fill="#FFFFFF" d="M191.462,172.354l19.19,44.692h-11.671l-4.605-11.261c-7.649,0.026-14.897,4.136-18.61,11.261h-11.67
			l19.193-44.692h8.17H191.462z M187.375,188.673l-6.034,14.734c3.327-1.67,8.089-2.274,11.308-1.849L187.375,188.673"/>
		<path fill="#FFFFFF" d="M124.66,223.507l21.964,51.152h-13.357l-5.271-12.891c-8.756,0.031-17.049,4.736-21.3,12.891H93.338
			l21.968-51.152h9.351H124.66z M119.983,242.185l-6.907,16.863c3.806-1.91,9.257-2.604,12.941-2.115L119.983,242.185"/>
		<path fill="#FFFFFF" d="M208.563,274.659v-17.933l-18.608-33.289h13.613l11.09,21.817l11.089-21.817h13.621l-18.615,33.289v17.933
			H208.563z"/>
		<polygon fill="#FFFFFF" points="77.898,255.064 77.898,223.438 90.092,223.438 90.092,274.659 77.898,274.659 56.147,243.022 
			56.147,274.659 43.957,274.659 43.957,223.438 56.147,223.438 		"/>
		<path fill="#FFFFFF" d="M161.159,255.957l-13.303-32.52h-13.373l21.993,51.222h9.247l22.112-51.222h-13.373L161.159,255.957z"/>
	</g>
</g>
<g>
	<path fill="#DF173B" d="M129.334,51.128c0.06,0.005,0.123,0.011,0.183,0.016C129.457,51.139,129.394,51.133,129.334,51.128z"/>
	<path fill="#DF173B" d="M129.517,51.144c0.161,0.014,0.324,0.028,0.49,0.04C129.841,51.171,129.678,51.158,129.517,51.144z"/>
	<g>
		<path fill="#DF173B" d="M61.98,63.328c1.112,1.451,2.998,2.921,2.998,2.921s1.483-0.644,4.171-0.644
			c0.144,0,0.43,0.008,0.43,0.008s-2.749-1.912-3.714-3.108c-1.384-1.715-4.022-6.066-12-7.154
			c-8.996-1.227-15.578-5.864-18.285-7.953c-0.07-0.017-0.112-0.026-0.112-0.026s0.524,1.883,1.344,4.526
			c4.228,3.543,10.156,4.802,15.138,5.425C56.295,57.868,59.899,60.615,61.98,63.328z"/>
		<path fill="#DF173B" d="M136.485,94.313c-8.017-0.94-10.376-5.257-13.156-7.278c-2.901-2.111-5.934-2.177-8.439-3.166
			c-1.904-0.751-5.445-2.607-7.036-3.455c-1.705,0.32-3.263,0.596-4.687,0.833c1.443,0.655,4.064,1.923,5.92,3.281
			c3.655,2.675,6.593,1.583,10.22,3.231c1.825,0.831,6,5.803,9.033,7.122c1.938,0.843,5.273,1.534,7.431,1.923
			c0.271-0.027,0.548-0.05,0.84-0.063C136.574,95.924,136.531,95.115,136.485,94.313z"/>
		<g>
			<path fill="#DF173B" d="M45.448,95.961c-0.031-0.402-0.064-0.809-0.097-1.218C45.384,95.153,45.417,95.56,45.448,95.961z"/>
			<path fill="#DF173B" d="M48.696,97.118c7.649-1.348,8.406-5.9,12.676-6.619c7.644-1.287,5.576-1.238,10.427-4.942
				c3.519-2.688,6.393-3.531,7.686-4.01c-2.008-0.176-3.548-0.56-4.968-0.854c-0.907,0.193-1.913,0.758-3.764,2.203
				c-2.473,1.928-3.98,2.952-5.959,3.496c-1.978,0.544-3.964,0.319-6.479,1.533c-2.427,1.171-6.077,6.298-12.693,6.686
				C46.39,95.573,47.363,96.463,48.696,97.118z"/>
			<path fill="#DF173B" d="M45.56,97.457L45.56,97.457c-0.033-0.448-0.066-0.901-0.101-1.357
				C45.494,96.556,45.527,97.008,45.56,97.457z"/>
			<path fill="#DF173B" d="M45.459,96.1c-0.004-0.045-0.007-0.092-0.011-0.138C45.452,96.007,45.455,96.054,45.459,96.1z"/>
			<path fill="#DF173B" d="M237.5,95.676c-1.336,0.65-3.26,1.267-5.406,0.953c-4.055-0.594-5.023-6.132-7.695-6.132
				c-2.67,0-4.953,2.472-8.547,2.472c-4.959,0-4.38-7.039-20.749,2.275c-6.026,3.429-14.302,3.929-19.484,1.583
				c-5.243-2.373-1.385-8.802-7.319-8.802c-3.264,0-12.149,4.843-18.98,6.105c-1.509-25.75-7.185-43.025-7.523-44.038
				c-2.038,0.591-4.286,1.021-6.861,1.139c-1.856,0.084-3.48,0.057-4.927-0.048c-0.166-0.012-0.329-0.025-0.49-0.04
				c-0.061-0.005-0.123-0.01-0.183-0.016c-1.605-0.148-2.988-0.394-4.226-0.683c-1.032,0.956-2.619,2.184-4.517,2.59
				c-2.821,0.605-5.014,0.404-7.577,1.572c-3.052,1.39-6.092,5.693-9.188,7.979c-2.249,1.662-5.418,3.856-7.469,4.444
				c1.81-0.072,3.825-0.269,5.774-0.725c0.723-0.169,1.414-0.333,2.081-0.492c4.927-2.845,7.642-7.413,10.738-8.667
				c3.185-1.289,5.137-0.829,8.303-1.894c2.102-0.708,4.454-2.271,6.195-3.58c0.272,0.904,0.639,2.173,1.063,3.778
				c0.737,2.788,1.651,6.59,2.553,11.252c0.153,0.791,0.305,1.606,0.457,2.447c-0.946,0.322-2.271,0.577-4.091,0.577
				c-4.945,0-4.55-2.67-15.232-2.67c-2.86,0-5.376,0.461-8.241,1.116c-1.197,0.273-2.456,0.581-3.826,0.902
				c-3.834,0.897-7.936,0.793-10.199,0.693c-0.122-0.005-0.237-0.01-0.347-0.016c-1.518-8.242-3.293-15.209-4.315-18.898
				c-1.076,0.178-2.577,0.312-4.689,0.312c-1.875,0-3.305-0.116-4.431-0.3c1.697,4.902,3.351,12.223,4.403,18.694
				c-7.437-0.1-10.053-1.612-13.403-1.612c-3.465,0-2.253,0.74-6.421,0.74c-4.527,0-4.297-1.478-7.854-1.802
				c-3.557-0.323-2.911,1.525-7.992,1.525c-3.128,0-4.75-0.964-5.665-1.833c0.734,3.126,1.364,6.359,1.904,9.61
				c0.932,0.843,2.548,1.738,5.563,1.738c3.234,0,2.817-0.831,7.992-0.831c3.926,0,3.581,1.086,7.854,1.339
				c4.52,0.27,3.442-0.485,6.907-0.485c3.358,0,5.958,1.702,12.301,1.259c0.387,3.129,1.522,12.834,1.505,18.995
				c-0.909-0.313-1.799-0.667-2.649-0.968c-1.118-0.397-2.17-0.705-3.111-0.705c-2.67,0-5.242,2.077-8.308,2.077
				c-3.066,0-2.374-1.879-7.22-1.879s-4.352,1.483-9.89,1.483c-0.228,0-0.449-0.006-0.666-0.014c-1.95-0.075-3.477-0.477-4.7-1.079
				c-1.333-0.655-2.306-1.545-3.075-2.507c-0.093,0.005-0.185,0.014-0.279,0.017c0.003,0.039,0.006,0.077,0.009,0.116
				c0.033,0.409,0.065,0.816,0.097,1.218c0.003,0.046,0.007,0.093,0.011,0.138c0.035,0.457,0.068,0.91,0.101,1.357
				c0.314,4.406,0.494,8.369,0.59,11.558c1.507,1.092,3.584,1.851,6.626,1.851c5.538,0,7.022-1.484,11.869-1.484
				s4.016,1.642,7.082,1.642c3.065,0,3.798-1.84,6.468-1.84c2.67,0,4.394,1.99,7.855,1.99c3.462,0,6.094-1.097,8.468-1.097
				c2.374,0,7.02,1.936,14.042,1.936c5.045,0,10.98-2.651,13.65-2.651c2.67,0,5.138,0.974,8.401,0.974
				c2.323,0,4.051-0.231,6.207-0.621c-0.211,14.342-1.918,30.428-6.301,47.291c4.787-0.499,9.558-1.484,13.254-2.912
				c0.121-0.046,0.24-0.093,0.358-0.14c4.07-16.794,5.525-31.841,5.555-45.987c8.814-2.19,17.021-6.87,20.104-6.87
				c5.436,0,2.479,6.026,7.721,8.4c3.813,1.727,8.092,1.974,19.084-2.087c10.059-3.718,9.574-3.9,12.66-3.9
				c3.084,0,4.268,2.532,8.09,2.532s4.96-3.082,10.301-3.082c3.561,0,2.83,5.796,6.885,5.796c0.758,0,1.451-0.141,2.082-0.369
				c-0.119-2.065-0.117-4.064,0.047-5.924C236.811,100.707,237.125,98.37,237.5,95.676z M135.771,96.805
				c-2.812,0.288-4.526,1.308-7.332,1.308c-0.053,0-0.108-0.003-0.162-0.005c-3.223-0.053-6.805-1.676-9.432-1.676
				c-4.549,0-9.692,2.572-14.638,2.572c-2.766,0-5.101-0.859-7.327-0.976c-0.163-0.008-0.325-0.014-0.487-0.014
				c-0.752,0-1.406,0.1-2.058,0.235c0.142-6.213-0.403-12.874-1.266-19.25c10.959,0,11.604-1.069,18.061-2.349
				c16.105-3.193,12.214,4.02,23.868,1.981c0.121,0.913,0.237,1.842,0.351,2.79c0.41,3.452,0.761,7.132,1.019,11.018
				c0.042,0.62,0.081,1.245,0.117,1.875c0.046,0.801,0.089,1.61,0.126,2.428C136.319,96.755,136.042,96.778,135.771,96.805z"/>
		</g>
	</g>
	<rect x="12.818" y="312.359" fill="#DF173B" width="257.938" height="12.564"/>
</g>
<g>
	<path fill="#FFFFFF" d="M128.379,94.79c-1.708-0.742-3.779-2.652-5.607-4.339c-1.406-1.296-2.621-2.416-3.424-2.781
		c-1.532-0.696-2.952-0.909-4.325-1.115c-1.94-0.291-3.774-0.565-5.878-2.106c-1.829-1.338-4.392-2.587-5.829-3.242l-0.331,0.06
		l0.141,0.071c1.405,0.637,4.042,1.911,5.902,3.271c2.144,1.569,4.087,1.86,5.966,2.142c1.359,0.204,2.765,0.415,4.271,1.1
		c0.774,0.351,1.978,1.462,3.372,2.748c1.839,1.697,3.924,3.619,5.663,4.375c1.814,0.789,4.822,1.444,7.139,1.872
		c0.11-0.014,0.218-0.028,0.331-0.04c0.119-0.012,0.241-0.023,0.363-0.033l-0.345-0.065
		C133.446,96.284,130.259,95.608,128.379,94.79z"/>
	<path fill="#FFFFFF" d="M48.85,97.189c4.299-0.789,6.376-2.561,8.21-4.129c1.354-1.158,2.524-2.159,4.328-2.463
		c5.796-0.976,6.037-1.188,7.909-2.841c0.612-0.541,1.374-1.213,2.561-2.12c3.127-2.389,5.768-3.324,7.187-3.826l0.473-0.17
		c-0.001,0.001,0.319-0.147,0.445-0.186c-0.158-0.015-0.543,0.087-0.704,0.069c-0.131,0.046-0.28,0.1-0.28,0.1
		c-1.428,0.507-4.087,1.448-7.241,3.855c-1.193,0.912-1.957,1.587-2.572,2.129c-1.835,1.62-2.07,1.828-7.811,2.795
		c-1.858,0.313-3.048,1.33-4.424,2.508c-1.834,1.568-3.911,3.346-8.253,4.111c0,0-0.055,0.009-0.124,0.022
		c0.047,0.024,0.092,0.051,0.141,0.075C48.745,97.143,48.799,97.165,48.85,97.189z"/>
	<path fill="#FFFFFF" d="M136.479,94.213c-6.085-0.716-8.873-3.379-11.113-5.517c-0.678-0.649-1.32-1.262-1.979-1.741
		c-1.938-1.41-3.895-1.904-5.786-2.382c-0.945-0.238-1.837-0.464-2.676-0.795c-1.869-0.738-5.396-2.708-6.937-3.527l-0.334,0.203
		c0,0,5.271,2.748,7.198,3.509c0.851,0.336,1.75,0.563,2.701,0.803c1.873,0.474,3.81,0.962,5.717,2.35
		c0.647,0.471,1.285,1.08,1.959,1.724c2.262,2.161,5.077,4.85,11.243,5.573c0,0,0.011,0,0.017,0
		c-0.002-0.032-0.004-0.066-0.005-0.099C136.483,94.28,136.481,94.247,136.479,94.213z"/>
	<g>
		<path fill="#FFFFFF" d="M124.99,50.417c-1.48,1.361-2.968,2.211-4.419,2.522c-0.998,0.214-1.916,0.327-2.804,0.435
			c-1.609,0.198-3.127,0.384-4.793,1.143c-1.803,0.822-3.626,2.674-5.39,4.466c-1.249,1.27-2.539,2.581-3.817,3.524
			c-3.372,2.49-5.875,3.979-7.438,4.428l-0.24,0.498l0.266-0.065c0.135-0.001,0.265-0.346,0.371-0.352
			c0.011-0.003,0.022-0.008,0.034-0.012c1.607-0.565,3.943-1.987,7.124-4.336c1.29-0.953,2.587-2.271,3.84-3.545
			c1.751-1.778,3.561-3.618,5.33-4.423c1.639-0.748,3.144-0.932,4.736-1.127c0.892-0.109,1.815-0.222,2.821-0.438
			c1.501-0.322,3.037-1.202,4.563-2.615c0,0,0.021-0.021,0.048-0.046L124.99,50.417z"/>
	</g>
	<g>
		<path fill="#FFFFFF" d="M74.37,80.462c-0.909,0.241-1.982,1.032-3.678,2.356c-2.535,1.975-3.991,2.947-5.925,3.479
			c-0.707,0.195-1.409,0.29-2.152,0.39c-1.338,0.18-2.721,0.368-4.343,1.15c-0.714,0.344-1.532,1.025-2.478,1.813
			c-2.326,1.937-5.51,4.589-10.179,4.862c0.001,0-0.156,0.001-0.286,0.002l0.018,0.198l0.274-0.002
			c4.739-0.279,7.952-2.954,10.298-4.908c0.937-0.78,1.745-1.454,2.437-1.787c1.594-0.77,2.96-0.954,4.283-1.133
			c0.751-0.101,1.46-0.197,2.179-0.395c1.968-0.541,3.439-1.521,5.994-3.513c1.787-1.395,2.796-1.986,3.723-2.185
			c0,0,0.102-0.021,0.214-0.047L74.37,80.462z"/>
	</g>
	<g>
		<path fill="#FFFFFF" d="M129.385,51.595c-1.635,1.229-4.035,2.846-6.166,3.563c-1.454,0.49-2.665,0.657-3.836,0.819
			c-1.413,0.195-2.748,0.379-4.472,1.078c-1.522,0.617-2.937,2.009-4.574,3.62c-1.713,1.686-3.654,3.597-6.176,5.053
			c0-0.001-0.145,0.078-0.34,0.185c0.201-0.045,0.432,0.303,0.655,0.252c2.437-1.451,4.329-3.705,5.999-5.349
			c1.623-1.597,3.024-2.976,4.51-3.578c1.7-0.69,3.024-0.872,4.424-1.065c1.18-0.163,2.4-0.331,3.872-0.827
			c2.145-0.722,4.547-2.337,6.196-3.574l-0.059-0.205C129.399,51.583,129.385,51.595,129.385,51.595z"/>
	</g>
	<path fill="#FFFFFF" d="M133.486,69.056c-1.113,0.379-2.479,0.571-4.057,0.571c-1.984,0-3.12-0.441-4.435-0.952
		c-1.97-0.766-4.422-1.718-10.797-1.718c-2.8,0-5.238,0.427-8.263,1.118l-2.208,0.519l-1.619,0.383
		c-3.673,0.86-7.564,0.808-10.172,0.691c0,0-0.202-0.009-0.268-0.012c0.004,0.026,0.009,0.052,0.014,0.077l-0.093-0.081l0.057,0.003
		c0,0,0.009,0,0.021,0.001c-1.642-8.893-3.546-16.094-4.297-18.806l-0.005-0.021l-0.196,0.037l0.005,0.015
		c0.748,2.701,2.665,9.946,4.312,18.889l0.015,0.077l0.079,0.004l0.056,0.002l0.291,0.013c2.619,0.116,6.529,0.17,10.226-0.697
		l1.619-0.382l2.207-0.519c3.012-0.688,5.437-1.113,8.218-1.113c6.338,0,8.771,0.945,10.726,1.705
		c1.333,0.519,2.485,0.966,4.506,0.966c1.593,0,2.975-0.194,4.109-0.578l-0.036-0.197L133.486,69.056z"/>
	<path fill="#FFFFFF" d="M134.983,78.534c-5.277,0.923-7.352-0.062-9.548-1.105c-2.713-1.289-5.52-2.622-14.324-0.875
		c-1.632,0.324-2.913,0.639-4.043,0.917c-3.378,0.83-5.818,1.43-13.998,1.43h-0.114l0.016,0.112
		c0.968,7.146,1.393,13.618,1.264,19.235c0,0,0,0.013,0,0.024l0.198-0.042c0.126-5.59-0.295-12.028-1.253-19.132
		c-0.038,0-0.074,0-0.111,0l0.097-0.112c0.005,0.038,0.009,0.074,0.014,0.112c8.113-0.006,10.559-0.606,13.934-1.437
		c1.128-0.277,2.406-0.591,4.035-0.914c8.741-1.733,11.516-0.416,14.201,0.86c2.225,1.057,4.327,2.054,9.662,1.121l-0.022-0.196
		L134.983,78.534z"/>
	<g>
		<path fill="#FFFFFF" d="M83.638,79.221c0.004,0.028,0.008,0.062,0.012,0.092c0.031-0.002,0.061-0.003,0.093-0.005L83.638,79.221z"
			/>
		<path fill="#FFFFFF" d="M82.553,69.46c-0.041,0-0.078-0.001-0.118-0.002c0.006,0.039,0.013,0.078,0.02,0.118L82.553,69.46z"/>
		<path fill="#FFFFFF" d="M91.589,69.652l0.093,0.081c-0.005-0.025-0.01-0.051-0.014-0.077c-0.012-0.001-0.021-0.001-0.021-0.001
			L91.589,69.652z"/>
		<path fill="#FFFFFF" d="M93.07,79.098c0.038,0,0.073,0,0.111,0c-0.005-0.038-0.009-0.074-0.014-0.112L93.07,79.098z"/>
	</g>
	<polygon fill="#FFFFFF" points="35.506,47.512 35.567,47.512 35.488,47.45 	"/>
	<path fill="#FFFFFF" d="M82.648,69.543c-1.126-6.932-2.808-14.074-4.39-18.66l-0.219-0.032l0.015,0.046
		c1.575,4.549,3.25,11.651,4.379,18.561c0.04,0.001,0.078,0.002,0.118,0.002l-0.099,0.115c-0.006-0.04-0.013-0.079-0.02-0.118
		c-4.309-0.067-6.983-0.61-9.134-1.046c-1.486-0.302-2.769-0.563-4.152-0.563c-1.667,0-2.258,0.169-2.884,0.347
		c-0.675,0.193-1.371,0.392-3.537,0.392c-2.509,0-3.516-0.445-4.583-0.916c-0.824-0.365-1.676-0.741-3.262-0.885
		c-1.726-0.157-2.48,0.19-3.354,0.594c-0.944,0.436-2.015,0.93-4.647,0.93c-2.454,0-4.337-0.607-5.597-1.805l-0.111-0.111
		l0.081,0.341l0.097,0.084c1.292,1.117,3.147,1.689,5.531,1.689c2.675,0,3.767-0.503,4.73-0.948
		c0.848-0.391,1.579-0.729,3.253-0.577c1.554,0.141,2.391,0.511,3.2,0.869c1.039,0.459,2.113,0.934,4.663,0.934
		c2.193,0,2.904-0.203,3.591-0.399c0.613-0.175,1.191-0.341,2.831-0.341c1.363,0,2.576,0.248,4.112,0.56
		c2.18,0.442,4.892,0.993,9.289,1.052l0.118,0.001L82.648,69.543z"/>
	<g>
		<path fill="#FFFFFF" d="M64.995,66.136c-0.291-0.231-1.938-1.567-2.937-2.869c-2.539-3.311-6.314-5.568-10.098-6.041
			c-4.357-0.546-10.664-1.698-15.086-5.403l-0.123-0.103l0.099,0.331l0.117,0.097c4.448,3.597,10.656,4.736,14.97,5.275
			c3.732,0.466,7.457,2.697,9.965,5.965c1.027,1.34,2.727,2.926,2.981,3.129c0.075-0.039,0.153-0.289,0.205-0.309L64.995,66.136z"/>
	</g>
	<g>
		<path fill="#FFFFFF" d="M69.635,65.533c-0.028-0.02-2.748-1.918-3.694-3.089c-0.123-0.152-0.259-0.33-0.403-0.517
			c-1.522-1.985-4.356-5.677-11.661-6.673c-6.227-0.849-12.437-3.526-17.98-7.741c-0.032-0.024-0.064-0.046-0.096-0.071
			l-0.334-0.069l0.021,0.077l0.079,0.062l0.023,0.02c5.617,4.316,11.929,7.055,18.259,7.918c7.225,0.984,10.026,4.636,11.532,6.597
			c0.144,0.189,0.281,0.367,0.406,0.521c0.861,1.065,3.066,2.655,3.611,3.041l0.517,0.16L69.635,65.533z"/>
	</g>
	<path fill="#FFFFFF" d="M85.34,98.202c0.017-6.211-1.148-16.118-1.506-19.006l-0.011-0.092l-0.093,0.006
		c-3.872,0.271-6.304-0.252-8.45-0.714c-1.358-0.292-2.532-0.545-3.844-0.545c-1.527,0-2.18,0.146-2.811,0.287
		c-0.804,0.18-1.563,0.349-4.091,0.199c-2.061-0.122-3.021-0.433-3.948-0.733c-0.964-0.312-1.875-0.606-3.911-0.606
		c-2.901,0-4.053,0.26-5.07,0.491c-0.808,0.182-1.505,0.34-2.922,0.34c-2.393,0-4.242-0.576-5.497-1.712l-0.087-0.067l0.028,0.146
		l0.027,0.145l0.078,0.067c1.289,1.071,3.116,1.62,5.451,1.62c1.438,0,2.146-0.161,2.965-0.345c1.007-0.228,2.148-0.486,5.027-0.486
		c2.006,0,2.901,0.29,3.85,0.596c0.896,0.291,1.912,0.62,3.998,0.743c2.555,0.152,3.328-0.021,4.146-0.204
		c0.621-0.139,1.261-0.282,2.768-0.282c1.291,0,2.455,0.251,3.802,0.541c2.14,0.46,4.567,0.98,8.412,0.724
		c-0.004-0.03-0.008-0.063-0.012-0.092l0.105,0.086c-0.032,0.002-0.062,0.003-0.093,0.005c0.368,2.987,1.505,12.713,1.493,18.855
		c0,0.001,0,0.002,0,0.002l0.198,0.072L85.34,98.202z"/>
</g>
<g>
	<path opacity="0.15" fill="#000B40" d="M230.774,46.831c2.088,7.861,5.01,23.114,1.68,33.857c-4.35,14.043-5.716-0.407-5.934-2.572
		c-0.465-4.631-1.885-3.871-1.385,4.341c0.445,7.291,6.132,29.483,12.66,44.318c4.368,9.927,5.121,21.268,5.131,27.128
		c1.311,0.333,1.742,0.917,1.742,0.917s0.468-6.336-2.307-18.726c-0.541-2.411-6.727-21.167-5.625-33.63
		c0.195-2.224,0.647-5.38,1.153-9.012c0.015-0.412,0.044-0.832,0.103-1.255c-0.335-14.448,2.211-30.226-3.344-45.646l-0.039-0.13
		l-3.863,0.26L230.774,46.831z"/>
	<g>
		<path opacity="0.15" fill="#000B40" d="M179.749,59.785c5.705,7.892,0.764-1.214-0.01-9.02c-6.105-0.066-8.584-1.318-10.289-2.726
			C172.109,50.37,177.704,56.956,179.749,59.785z"/>
	</g>
	<g>
		<g>
			<path opacity="0.15" fill="#000B40" d="M47.048,66.065c-0.03,0-0.058,0.001-0.089,0.001c-1.25,0-2.253-0.157-3.073-0.397
				c0.989,4.07,2.201,9.565,3.021,14.383c0.451,0.069,0.924,0.11,1.42,0.113c0.996,0.004,1.844-0.026,2.598-0.076
				c-0.397-1.621-1.159-4.724-1.933-7.833C48.194,69.04,47.424,66.982,47.048,66.065z"/>
			<path opacity="0.15" fill="#000B40" d="M39.765,51.779c0.364,1.048,1.181,3.211,1.715,4.775c0.856,0.398,1.803,0.774,2.844,1.106
				C43.252,56.009,41.35,53.239,39.765,51.779z"/>
			<g>
				<path opacity="0.15" fill="#FFFFFF" d="M214.467,51.883c7.35,9.573,2.084,2.828,2.909-2.585
					c-0.263,0.013-0.53,0.021-0.812,0.021c-2.749,0-4.479-0.732-6.03-1.604C211.586,48.544,212.84,49.765,214.467,51.883z"/>
				<path opacity="0.15" fill="#000B40" d="M214.467,51.883c7.35,9.573,2.084,2.828,2.909-2.585
					c-0.263,0.013-0.53,0.021-0.812,0.021c-2.749,0-4.479-0.732-6.03-1.604C211.586,48.544,212.84,49.765,214.467,51.883z"/>
				<path opacity="0.15" fill="#000B40" d="M180.84,139.835c3.994-36.251-21.984-85.271-13.025-63.579
					c0.56,1.354,14.355,44.943,3.507,71.176c-0.235,0.569-0.427,1.167-0.562,1.777c-0.247,3.25,1.336,9.561,17.992,6.854
					C182.585,154.132,179.866,148.674,180.84,139.835z"/>
				<path opacity="0.15" fill="none" d="M180.84,139.835c3.994-36.251-21.984-85.271-13.025-63.579
					c0.56,1.354,14.355,44.943,3.507,71.176c-0.235,0.569-0.427,1.167-0.562,1.777c-0.247,3.25,1.336,9.561,17.992,6.854
					C182.585,154.132,179.866,148.674,180.84,139.835z"/>
				<path opacity="0.15" fill="#FFFFFF" d="M221.625,141.852c-0.273-0.783-0.432-1.436-0.639-1.969
					c-1.156-3.019-1.253-2.23-0.74,0.191c1.148,5.435,1.197,9.528,0.861,11.983c0.044,5.364,4.701,5.33,8.152,4.568
					C224.534,156.23,222.938,145.61,221.625,141.852z"/>
				<path opacity="0.15" fill="#000B40" d="M221.625,141.852c-0.273-0.783-0.432-1.436-0.639-1.969
					c-1.156-3.019-1.253-2.23-0.74,0.191c1.148,5.435,1.197,9.528,0.861,11.983c0.044,5.364,4.701,5.33,8.152,4.568
					C224.534,156.23,222.938,145.61,221.625,141.852z"/>
				<path opacity="0.15" fill="#FFFFFF" d="M74.752,137.256c0.186-1.76,0.104-2.25-0.902-0.18c-0.758,1.562-2.622,5.432-3.859,9.218
					c-1.039,3.18-1.405,6.162-1.364,7.214c1.313,1.783,2.231,4.207,7.984,3.355c0.396-0.058,0.805-0.13,1.222-0.212
					C72.736,152.95,74.274,141.807,74.752,137.256z"/>
				<path opacity="0.15" fill="#000B40" d="M74.752,137.256c0.186-1.76,0.104-2.25-0.902-0.18c-0.758,1.562-2.622,5.432-3.859,9.218
					c-1.039,3.18-1.405,6.162-1.364,7.214c1.313,1.783,2.231,4.207,7.984,3.355c0.396-0.058,0.805-0.13,1.222-0.212
					C72.736,152.95,74.274,141.807,74.752,137.256z"/>
				<path opacity="0.15" fill="#000B40" d="M122.684,133.647c1.827-6.718,2.527-8.258,3.958-17.645
					c0.517-3.396-0.299-3.249-0.733-2.128c-0.188,0.483-0.362,1.282-0.601,2.237c-0.658,2.631-1.43,5.038-1.43,5.038
					c-5.023,15.471-14.783,26.278-13.855,31.969c0.053,0.323,0.179,0.627,0.364,0.913c1.615,2.23,7.055,3.297,13.462,3.312
					C117.053,152.118,119.901,143.879,122.684,133.647z"/>
				<path opacity="0.15" fill="#000B40" d="M54.016,98.211c-0.011-0.089-0.022-0.178-0.033-0.267
					c-0.194,0.088-0.389,0.174-0.587,0.253C53.599,98.205,53.805,98.21,54.016,98.211z"/>
				<path opacity="0.15" fill="#000B40" d="M52.009,87.34l-0.417,0.192L47.71,89.04l0.21,1.09c1.301-0.445,2.756-1.162,4.303-2.292
					L52.009,87.34z"/>
				<path opacity="0.15" fill="#000B40" d="M58.665,127.645c-0.569,0-1.797,3.597-3.758,7.95c-2.535,5.625-6.406,10.157-3.728,2.077
					c4.325-13.047,4.373-27.393,2.837-39.46c-0.211,0-0.417-0.006-0.621-0.014c0.199-0.079,0.394-0.165,0.587-0.253
					c-0.465-3.59-1.068-6.977-1.742-10.062l-0.019-0.044c-1.547,1.13-3.001,1.846-4.303,2.292l0.005,0.025
					c1.865,17.976,1.449,41.249-3.775,66.404l-0.002,0.009c0.742,0.083,1.642,0.137,2.695,0.113
					c1.567-2.166,5.419-7.712,7.904-13.23C58.112,135.979,59.233,127.645,58.665,127.645z"/>
				<path opacity="0.15" fill="none" d="M58.665,127.645c-0.569,0-1.797,3.597-3.758,7.95c-2.535,5.625-6.406,10.157-3.728,2.077
					c4.325-13.047,4.373-27.393,2.837-39.46c-0.211,0-0.417-0.006-0.621-0.014c0.199-0.079,0.394-0.165,0.587-0.253
					c-0.465-3.59-1.068-6.977-1.742-10.062l-0.019-0.044c-1.547,1.13-3.001,1.846-4.303,2.292l0.005,0.025
					c1.865,17.976,1.449,41.249-3.775,66.404l-0.002,0.009c0.742,0.083,1.642,0.137,2.695,0.113
					c1.567-2.166,5.419-7.712,7.904-13.23C58.112,135.979,59.233,127.645,58.665,127.645z"/>
			</g>
		</g>
	</g>
</g>
</svg>
